<?xml version="1.0" encoding="UTF-8"?>
<svg width="287px" height="245px" viewBox="0 0 287 245" version="1.1" xmlns="http://www.w3.org/2000/svg" xmlns:xlink="http://www.w3.org/1999/xlink">
    <title>LOGO</title>
    <defs>
        <polygon id="path-1" points="0.788751736 0.660794405 69.4196198 0.660794405 69.4196198 73.1484417 0.788751736 73.1484417"></polygon>
        <polygon id="path-3" points="0.189245931 0.223454115 43.325014 0.223454115 43.325014 73.6723368 0.189245931 73.6723368"></polygon>
    </defs>
    <g id="PAGES" stroke="none" stroke-width="1" fill="none" fill-rule="evenodd">
        <g id="R1/DESKTOP/HOME" transform="translate(-576.000000, -278.000000)">
            <g id="LOGO" transform="translate(576.000000, 278.000000)">
                <path d="M70.6057491,8.80000879 L73.2553662,61.8450477 C73.4611011,65.9709664 73.8002521,69.8046636 77.7291667,71.0319938 L77.7291667,72.703252 L60.2404471,72.703252 L60.2404471,71.0319938 C64.8252198,70.1528424 63.9798361,64.8194894 63.8077668,61.0790544 L62.5147537,17.8340049 L39.9013629,53.406686 L37.8265569,53.406686 L15.2131661,17.8340049 L13.920153,61.2456828 C13.7992058,66.8215174 13.7543181,69.6890185 17.8253768,71.0319938 L17.8253768,72.703252 L0,72.703252 L0,71.0319938 C3.99749287,69.8991693 4.34412513,65.7371892 4.51868814,61.9930237 L7.12217071,7.62863586 C7.12217071,7.62863586 5.84287324,5.17273188 2.29300979,3.59846634 L2.29300979,1.99186992 L15.604686,1.99186992 L39.0709417,41.1085137 L63.0172458,1.99186992 L75.43491,1.99186992 L75.43491,3.59846634 C75.43491,3.59846634 73.452373,3.40448102 70.6057491,8.80000879" id="Fill-1" fill="#FEFEFE"></path>
                <g id="Group-5" transform="translate(123.569444, 0.000000)">
                    <mask id="mask-2" fill="white">
                        <use xlink:href="#path-1"></use>
                    </mask>
                    <g id="Clip-4"></g>
                    <path d="M18.985349,71.4683501 L18.985349,73.1484417 L0.788751736,73.1484417 L0.788751736,71.4683501 C4.73500174,69.8844421 5.73651215,66.5355011 7.54147309,62.4895407 L34.2035738,0.659670181 L36.2763516,0.659670181 L63.7767812,64.599336 C66.1011823,70.8000608 69.4196198,71.4683501 69.4196198,71.4683501 L69.4196198,73.1484417 L51.0548585,73.1484417 L51.0548585,71.4683501 C55.0658828,70.8175488 54.8341901,67.1163506 53.2073585,63.293986 L48.2982135,51.5808118 L21.4579835,51.5808118 L17.546612,61.4939771 C17.546612,61.4939771 13.3462474,70.6539116 18.985349,71.4683501 L18.985349,71.4683501 Z M44.9822674,43.4751504 L35.0605877,18.3262397 L24.6705399,43.4751504 L44.9822674,43.4751504 Z" id="Fill-3" fill="#FEFEFE" mask="url(#mask-2)"></path>
                </g>
                <path d="M280.669328,17.3345998 C277.072679,12.0417637 270.89588,8.71908034 264.217626,8.71908034 C256.8193,8.71908034 252.966984,12.977555 252.81136,18.3727044 C252.577923,26.4541988 258.463235,29.1679939 270.99963,35.0846909 C279.733112,39.2371093 285.850626,44.5985701 286.001309,54.6003085 C286.159404,65.1685126 277.643301,73.699187 262.676205,73.699187 C254.866587,73.699187 247.83509,71.694098 243.152778,67.9634096 L243.152778,53.9776953 L244.785597,53.9776953 C248.896052,61.1396188 255.380394,65.0462359 263.601305,65.0836676 C271.15896,65.1198515 276.662622,61.4428152 276.959049,55.3264826 C277.35305,47.1801066 270.842771,44.82316 256.305494,37.7835133 C248.188332,34.0478341 243.666585,28.1298893 243.666585,18.8917567 C243.666585,8.92620217 251.050089,0 264.113876,0 C272.437301,0 278.217629,2.24465162 282.199632,4.44188981 L282.199632,17.3345998 L280.669328,17.3345998 Z" id="Fill-6" fill="#FEFEFE"></path>
                <g id="Group-10" transform="translate(243.152778, 109.552846)">
                    <mask id="mask-4" fill="white">
                        <use xlink:href="#path-3"></use>
                    </mask>
                    <g id="Clip-9"></g>
                    <path d="M37.9560916,17.4991805 C34.3354479,12.2230769 28.1174398,8.91292188 21.3946304,8.91292188 C13.9469463,8.91292188 10.0689284,13.1569335 9.91226596,18.5325158 C9.67727225,26.5878067 15.601849,29.2923848 28.2218814,35.188987 C37.0136301,39.3273025 43.1719572,44.6705543 43.3236463,54.6383238 C43.4827955,65.1706352 34.9098769,73.6723368 19.8429259,73.6723368 C11.9812053,73.6723368 4.90279694,71.6740577 0.189245931,67.9560398 L0.189245931,54.0178252 L1.83295852,54.0178252 C5.97083712,61.1554246 12.4984401,65.0487737 20.7741973,65.0860783 C28.382274,65.1221393 33.9226547,61.4575913 34.2210594,55.3620316 C34.617689,47.2433231 28.0639756,44.8943814 13.4297114,37.8786434 C5.25839589,34.1556516 0.706480756,28.257806 0.706480756,19.0510488 C0.706480756,9.11934026 8.13924466,0.223454115 21.2901888,0.223454115 C29.6691443,0.223454115 35.488036,2.46048224 39.4966059,4.65025796 L39.4966059,17.4991805 L37.9560916,17.4991805 Z" id="Fill-8" fill="#FEFEFE" mask="url(#mask-4)"></path>
                </g>
                <path d="M13.3223049,173.718256 L21.8983918,173.718256 C39.7999685,173.718256 50.5117298,162.856321 50.5117298,146.821445 C50.5117298,130.475694 39.7999685,119.924633 21.8983918,119.924633 L13.3223049,119.924633 L13.3223049,173.718256 Z M21.8983918,182.256098 L0,182.256098 L0,180.752711 C4.7054089,179.599991 4.05370049,174.61606 4.05370049,170.628169 L4.05370049,122.91151 C4.05370049,118.923619 4.30597471,114.394808 0,113.151312 L0,111.544715 L21.8983918,111.544715 C45.7667485,111.544715 60.7881944,125.923256 60.7881944,146.821445 C60.7881944,167.407516 45.7667485,182.256098 21.8983918,182.256098 L21.8983918,182.256098 Z" id="Fill-11" fill="#FEFEFE"></path>
                <path d="M129.548611,182.256098 L176.385417,182.256098 L176.385417,168.932041 L174.776253,168.932041 C173.568746,173.302929 169.402659,173.682195 165.339203,173.682195 L143.188492,173.682195 L143.188492,150.351729 L164.895733,150.351729 C168.215426,150.351729 169.816987,152.115006 170.322543,154.034963 L171.931707,154.034963 L171.931707,138.870533 L170.322543,138.870533 C170.154025,140.501999 168.720982,142.071291 164.895733,142.071291 L143.188492,142.071291 L143.188492,119.924633 L164.687936,119.857484 C168.751391,119.857484 172.428394,120.206906 173.888045,124.269407 L175.497209,124.269407 L175.497209,111.544715 L129.548611,111.544715 L129.548611,113.151312 C134.083412,114.264241 133.702028,118.184982 133.702028,122.172873 L133.702028,171.366806 C133.702028,175.354697 134.083412,179.471911 129.548611,180.583596 L129.548611,182.256098 Z" id="Fill-13" fill="#FEFEFE"></path>
                <path d="M153.266361,225.199498 L154.081172,241.635429 C154.144586,242.913966 154.248681,244.10238 155.458333,244.482096 L155.458333,245 L150.076515,245 L150.076515,244.482096 C151.487178,244.210527 151.22754,242.557081 151.174894,241.398707 L150.776462,227.999302 L143.818865,239.020676 L143.179939,239.020676 L136.222341,227.999302 L135.823909,241.450377 C135.788015,243.178325 135.773657,244.066331 137.026383,244.482096 L137.026383,245 L131.541667,245 L131.541667,244.482096 C132.77166,244.13122 132.878148,242.841868 132.93199,241.682292 L133.732442,224.836605 C133.732442,224.836605 133.338797,224.075971 132.2464,223.588108 L132.2464,223.089431 L136.030902,223.089431 L143.562816,234.530175 L151.191645,223.089431 L154.752403,223.089431 L154.752403,223.588108 C154.752403,223.588108 154.142193,223.528027 153.266361,225.199498" id="Fill-15" fill="#FEFEFE"></path>
                <path d="M5.97916667,223.089431 L5.97916667,223.586907 C4.45483104,223.931775 4.58362943,225.146626 4.58362943,226.383106 L4.58362943,241.625816 C4.58362943,242.861094 4.45483104,244.137228 5.97916667,244.482096 L5.97916667,245 L0,245 L0,244.482096 C1.52433563,244.137228 1.39553723,242.861094 1.39553723,241.625816 L1.39553723,226.383106 C1.39553723,225.146626 1.52433563,223.931775 0,223.586907 L0,223.089431 L5.97916667,223.089431 Z" id="Fill-17" fill="#FEFEFE"></path>
                <path d="M173.395833,223.089431 L173.395833,223.586907 C171.871498,223.931775 172.000296,225.146626 172.000296,226.383106 L172.000296,241.625816 C172.000296,242.861094 171.871498,244.137228 173.395833,244.482096 L173.395833,245 L167.416667,245 L167.416667,244.482096 C168.941002,244.137228 168.812204,242.861094 168.812204,241.625816 L168.812204,226.383106 C168.812204,225.146626 168.941002,223.931775 167.416667,223.586907 L167.416667,223.089431 L173.395833,223.089431 Z" id="Fill-19" fill="#FEFEFE"></path>
                <path d="M76.7326389,245 L91.6805556,245 L91.6805556,240.87119 L91.1672845,240.87119 C90.7813853,242.22543 89.4521772,242.34319 88.1557579,242.34319 L81.0859847,242.34319 L81.0859847,235.114168 L88.0132526,235.114168 C89.0725836,235.114168 89.5845936,235.660911 89.7460154,236.255719 L90.2592865,236.255719 L90.2592865,231.556134 L89.7460154,231.556134 C89.6917878,232.062022 89.2340055,232.548683 88.0132526,232.548683 L81.0859847,232.548683 L81.0859847,225.686159 L87.947675,225.66453 C89.2440943,225.66453 90.4181861,225.773878 90.8835351,227.031988 L91.3968062,227.031988 L91.3968062,223.089431 L76.7326389,223.089431 L76.7326389,223.586907 C78.1803912,223.931775 78.0580637,225.146626 78.0580637,226.381904 L78.0580637,241.625816 C78.0580637,242.861094 78.1803912,244.137228 76.7326389,244.482096 L76.7326389,245 Z" id="Fill-21" fill="#FEFEFE"></path>
                <path d="M284.267085,227.481483 C283.09575,225.836665 281.085416,224.803817 278.910795,224.803817 C276.501655,224.803817 275.247548,226.126927 275.197384,227.804399 C275.120883,230.316375 277.037159,231.159344 281.119277,232.998879 C283.962337,234.289335 285.953859,235.955922 286.00277,239.064144 C286.054188,242.348941 283.281357,245 278.409152,245 C275.865823,245 273.577077,244.377146 272.052083,243.217308 L272.052083,238.870636 L272.583825,238.870636 C273.921957,241.095977 276.033873,242.310239 278.710137,242.322334 C281.170695,242.333219 282.962814,241.190312 283.05938,239.289097 C283.187299,236.757771 281.067859,236.024859 276.334859,233.83701 C273.691201,232.675962 272.220134,230.836427 272.220134,227.965253 C272.220134,224.867916 274.624257,222.093496 278.876934,222.093496 C281.587059,222.093496 283.468219,222.791334 284.764966,223.474659 L284.764966,227.481483 L284.267085,227.481483 Z" id="Fill-23" fill="#FEFEFE"></path>
                <path d="M242.15625,245 L257.104167,245 L257.104167,240.87119 L256.590896,240.87119 C256.204996,242.22543 254.875788,242.34319 253.579369,242.34319 L246.509596,242.34319 L246.509596,235.114168 L253.436864,235.114168 C254.496195,235.114168 255.008205,235.660911 255.169627,236.255719 L255.682898,236.255719 L255.682898,231.556134 L255.169627,231.556134 C255.115399,232.062022 254.657617,232.548683 253.436864,232.548683 L246.509596,232.548683 L246.509596,225.686159 L253.371286,225.66453 C254.667705,225.66453 255.841797,225.773878 256.307146,227.031988 L256.820417,227.031988 L256.820417,223.089431 L242.15625,223.089431 L242.15625,223.586907 C243.604002,223.931775 243.481675,225.146626 243.481675,226.381904 L243.481675,241.625816 C243.481675,242.861094 243.604002,244.137228 242.15625,244.482096 L242.15625,245 Z" id="Fill-25" fill="#FEFEFE"></path>
                <path d="M51.125815,241.397505 L51.125815,226.611416 C51.125815,225.185078 51.2329176,224.270636 49.8263889,223.588108 L49.8263889,223.089431 L64.7743056,223.089431 L64.7743056,227.137731 L64.3613797,227.137731 C63.7342485,225.785894 62.5212788,225.665731 61.1947544,225.665731 L54.2240495,225.686159 L54.2240495,232.548683 L61.3121802,232.548683 C62.5277307,232.548683 62.941947,232.058417 63.0851806,231.557336 L63.4981065,231.557336 L63.4981065,236.099507 L63.0851806,236.099507 C62.8967832,235.556369 62.5457962,235.145411 61.3121802,235.114168 L54.2240495,235.114168 L54.2240495,241.397505 C54.2240495,242.632784 54.2343726,244.041097 55.5802529,244.482096 L55.5802529,245 L49.8263889,245 L49.8263889,244.482096 C51.2987277,244.011056 51.125815,242.632784 51.125815,241.397505" id="Fill-27" fill="#FEFEFE"></path>
                <path d="M36.4044662,238.233049 L36.2696394,226.323028 C36.2696394,225.109839 36.3953913,223.916712 34.9071111,223.578011 L34.9071111,223.089431 L40.8576389,223.089431 L40.8576389,223.578011 C39.3706552,223.916712 39.4951106,225.109839 39.4951106,226.323028 L39.3823229,245 L39.4043618,245 L38.7820844,245 L23.3184907,228.031877 L23.4312785,228.031877 L23.6711146,241.294345 C23.6711146,242.507534 23.7683454,243.813954 25.0336428,244.099549 L25.0336428,244.608192 L18.9703273,244.608192 L18.9703273,244.099549 C20.4586074,243.760848 20.3328555,242.507534 20.3328555,241.294345 L20.501389,224.899773 L20.4871285,224.899773 C19.8026233,223.745591 18.9340278,223.403349 18.9340278,223.403349 L18.9340278,223.089431 L23.1979245,223.089431 L36.4044662,238.233049 Z" id="Fill-29" fill="#FEFEFE"></path>
                <path d="M103.638889,245 L103.638889,244.481897 C105.130637,244.136896 105.004592,242.892729 105.004592,241.656976 L105.004592,226.384371 C105.004592,225.147416 105.130637,223.923684 103.638889,223.578683 L103.638889,223.089431 L112.907739,223.089431 C116.894398,223.089431 120.153374,225.590989 120.153374,229.438892 C120.153374,232.838414 117.62208,235.11518 114.259149,235.596018 L120.261227,242.754488 C121.712692,244.400155 122.572917,244.481897 122.572917,244.481897 L122.572917,245 L118.212022,245 L109.232945,233.776047 L109.232945,233.286795 L112.041018,233.286795 C114.98813,233.286795 116.859313,231.811826 116.859313,229.471348 C116.859313,227.065958 114.98813,225.6547 112.041018,225.6547 L108.124529,225.6547 L108.124529,225.6547 L108.124529,241.396122 C108.124529,242.631875 108.014077,243.944561 109.490232,244.481897 L109.490232,245 L103.638889,245 Z" id="Fill-31" fill="#FEFEFE"></path>
                <path d="M213.256944,245 L213.256944,244.481897 C214.748693,244.136896 214.622648,242.892729 214.622648,241.656976 L214.622648,226.540643 C214.622648,225.30489 214.748693,223.923684 213.256944,223.578683 L213.256944,223.089431 L222.525795,223.089431 C226.512453,223.089431 229.77013,225.590989 229.77013,229.438892 C229.77013,232.838414 227.240135,235.11518 223.877204,235.596018 L229.879282,242.754488 C231.330748,244.400155 232.190972,244.481897 232.190972,244.481897 L232.190972,245 L227.830077,245 L218.851,233.776047 L218.851,233.286795 L221.659074,233.286795 C224.606186,233.286795 226.477368,231.811826 226.477368,229.471348 C226.477368,227.065958 224.606186,225.6547 221.659074,225.6547 L217.742585,225.6547 L217.742585,225.6547 L217.742585,241.396122 C217.742585,242.631875 217.632133,243.944561 219.108288,244.481897 L219.108288,245 L213.256944,245 Z" id="Fill-33" fill="#FEFEFE"></path>
                <path d="M186.350694,245 L201.298611,245 L201.298611,240.87119 L200.78534,240.87119 C200.399441,242.22543 199.070233,242.34319 197.773813,242.34319 L190.70404,242.34319 L190.70404,235.114168 L197.631308,235.114168 C198.690639,235.114168 199.202649,235.660911 199.364071,236.255719 L199.877342,236.255719 L199.877342,231.556134 L199.364071,231.556134 C199.309843,232.062022 198.852061,232.548683 197.631308,232.548683 L190.70404,232.548683 L190.70404,225.686159 L197.565731,225.66453 C198.86215,225.66453 200.036242,225.773878 200.501591,227.031988 L201.014862,227.031988 L201.014862,223.089431 L186.350694,223.089431 L186.350694,223.586907 C187.798447,223.931775 187.676119,225.146626 187.676119,226.381904 L187.676119,241.625816 C187.676119,242.861094 187.798447,244.137228 186.350694,244.482096 L186.350694,245 Z" id="Fill-35" fill="#FEFEFE"></path>
                <path d="M196.315972,221.097561 L195.503993,221.097561 L189.340278,215.121951 L193.480343,215.121951 C193.480343,215.121951 194.16749,218.453815 196.315972,221.097561" id="Fill-37" fill="#FEFEFE"></path>
            </g>
        </g>
    </g>
</svg>